<?xml version="1.0" encoding="utf-8"?>
<!-- Generator: Adobe Illustrator 16.0.0, SVG Export Plug-In . SVG Version: 6.00 Build 0)  -->
<!DOCTYPE svg PUBLIC "-//W3C//DTD SVG 1.1//EN" "http://www.w3.org/Graphics/SVG/1.1/DTD/svg11.dtd">
<svg version="1.1" id="Layer_1" xmlns="http://www.w3.org/2000/svg" xmlns:xlink="http://www.w3.org/1999/xlink" x="0px" y="0px"
	 width="260px" height="90px" viewBox="0 0 260 90" enable-background="new 0 0 260 90" xml:space="preserve">
<rect fill="none" width="260" height="90"/>
<g>
	<ellipse fill="#FFFFFF" cx="49.877" cy="45" rx="29.25" ry="29.208"/>
	<circle fill="#DE5833" cx="49.881" cy="45" r="26.05"/>
	<g>
		<path fill="#DE5833" d="M49.877,75.333c-16.749,0-30.375-13.606-30.375-30.333c0-16.726,13.626-30.333,30.375-30.333
			S80.252,28.274,80.252,45C80.252,61.727,66.626,75.333,49.877,75.333z M49.877,16.917c-15.508,0-28.125,12.598-28.125,28.083
			c0,15.484,12.617,28.083,28.125,28.083S78.002,60.484,78.002,45C78.002,29.515,65.385,16.917,49.877,16.917z"/>
	</g>
	<g>
		<g>
			<path fill="#4C4C4C" d="M98.309,35.05h-6.551l-0.142,0.025v18.268h6.692c6.346,0,9.185-4.69,9.185-9.34
				C107.493,39.691,104.62,35.05,98.309,35.05z M98.309,37.494c4.604,0,6.666,3.256,6.666,6.485c0,3.158-1.745,6.843-6.666,6.843
				h-4.174V37.494H98.309z"/>
			<path fill="#4C4C4C" d="M119.588,47.32c0,2.287-1.583,3.968-3.763,3.988c-2.323,0-3.711-1.432-3.711-3.812v-7.129h-2.39v7.156
				c0,3.662,2.225,6.021,5.665,6.021h0.002c1.777-0.021,3.22-0.692,4.294-1.983l0.091,1.776h2.204v-12.97h-2.39L119.588,47.32
				L119.588,47.32z"/>
			<path fill="#4C4C4C" d="M135.96,51.381l-1.489-1.49l-0.104,0.104c-0.811,0.836-1.95,1.291-3.209,1.291
				c-2.182,0-4.383-1.367-4.383-4.431c0-2.61,1.812-4.438,4.407-4.438c1.164,0,2.297,0.452,3.109,1.245l0.104,0.098l1.532-1.591
				l-0.103-0.098c-1.312-1.289-2.895-1.943-4.697-1.943c-4.052,0-6.771,2.7-6.771,6.727c0,4.641,3.399,6.717,6.771,6.717
				c1.879,0,3.504-0.67,4.828-1.993l0.104-0.101L135.96,51.381L135.96,51.381z"/>
			<polygon fill="#4C4C4C" points="148.225,40.698 148.225,40.368 145.4,40.368 140.389,45.506 140.389,35.077 138.021,35.077 
				138.021,53.346 140.389,53.346 140.389,47.561 146.172,53.346 148.941,53.346 148.941,52.988 142.426,46.497 			"/>
			<path fill="#4C4C4C" d="M157.529,35.05h-6.549l-0.146,0.025v18.268h6.688c6.353,0,9.188-4.69,9.188-9.34
				C166.717,39.691,163.842,35.05,157.529,35.05z M157.529,37.494c4.604,0,6.668,3.256,6.668,6.485c0,3.158-1.745,6.843-6.668,6.843
				h-4.172V37.494H157.529z"/>
			<path fill="#4C4C4C" d="M178.809,47.32c0,2.287-1.582,3.968-3.766,3.988c-2.32,0-3.71-1.432-3.71-3.812v-7.129h-2.39v7.156
				c0,3.662,2.226,6.021,5.664,6.021h0.002c1.772-0.021,3.219-0.692,4.293-1.983l0.093,1.776h2.205v-12.97h-2.392V47.32
				L178.809,47.32L178.809,47.32z"/>
			<path fill="#4C4C4C" d="M195.182,51.381l-1.49-1.49l-0.1,0.104c-0.812,0.836-1.951,1.291-3.211,1.291
				c-2.181,0-4.382-1.367-4.382-4.431c0-2.61,1.812-4.438,4.403-4.438c1.164,0,2.298,0.452,3.113,1.245l0.103,0.098l1.532-1.591
				l-0.104-0.098c-1.312-1.289-2.892-1.943-4.696-1.943c-4.052,0-6.771,2.7-6.771,6.727c0,4.641,3.403,6.717,6.771,6.717
				c1.879,0,3.504-0.67,4.828-1.993l0.104-0.101L195.182,51.381L195.182,51.381z"/>
			<polygon fill="#4C4C4C" points="207.445,40.698 207.445,40.368 204.622,40.368 199.609,45.506 199.609,35.077 197.244,35.077 
				197.244,53.346 199.609,53.346 199.609,47.561 205.395,53.346 208.165,53.346 208.165,52.988 201.646,46.497 			"/>
			<path fill="#4C4C4C" d="M217.203,45.482h5.598v4.057c-1.349,1.143-2.994,1.747-4.764,1.747c-4.869,0-7.049-3.478-7.049-6.922
				c0-3.508,2.189-7.282,7-7.282c1.896,0,3.895,0.792,5.217,2.065l0.107,0.106l1.471-1.706l-0.094-0.092
				c-1.793-1.767-4.172-2.739-6.703-2.739c-2.76,0-5.123,0.907-6.83,2.622c-1.73,1.739-2.678,4.235-2.662,7.025
				c0,4.297,2.492,9.313,9.518,9.313c2.801,0,5.113-1.015,7.066-3.104l0.037-0.039v-7.314h-7.912V45.482L217.203,45.482z"/>
			<path fill="#4C4C4C" d="M233.754,40.084c-3.893,0-6.719,2.859-6.719,6.797c0,3.878,2.826,6.692,6.719,6.692
				c3.906,0,6.744-2.814,6.744-6.692C240.498,42.878,237.723,40.084,233.754,40.084z M233.754,51.309
				c-2.508,0-4.328-1.854-4.328-4.428c0-2.699,1.791-4.583,4.354-4.583c2.522,0,4.354,1.927,4.354,4.582
				C238.105,49.49,236.305,51.309,233.754,51.309z"/>
		</g>
	</g>
	<g>
		<g>
			<g>
				<g>
					<g>
						<g>
							<g>
								<g>
									<g>
										<g>
											<g>
												<g>
													<g>
														<g>
															<g>
																<defs>
																	<path id="SVGID_1_" d="M76.163,44.928c0,14.494-11.79,26.283-26.285,26.283c-14.492,0-26.28-11.791-26.28-26.283
																		c0-14.491,11.79-26.28,26.28-26.28C64.373,18.647,76.163,30.437,76.163,44.928z"/>
																</defs>
																<clipPath id="SVGID_2_">
																	<use xlink:href="#SVGID_1_"  overflow="visible"/>
																</clipPath>
																<g clip-path="url(#SVGID_2_)">
																	<path fill="#D5D7D8" d="M60.554,83.801c-0.917-4.221-6.244-13.771-8.265-17.809
																		c-2.019-4.037-4.042-9.73-3.122-13.402c0.167-0.668-1.749-5.759-1.198-6.119c4.285-2.795,5.415,0.307,7.13-0.947
																		c0.885-0.646,2.083,0.531,2.39-0.541c1.098-3.854-1.531-10.571-4.465-13.508c-0.959-0.957-2.43-1.558-4.089-1.877
																		c-0.638-0.872-1.668-1.712-3.125-2.484c-1.624-0.864-5.154-2.005-6.984-2.309
																		c-1.269-0.209-1.555,0.146-2.098,0.234c0.505,0.045,2.902,1.229,3.37,1.299c-0.467,0.315-1.837-0.015-2.712,0.377
																		c-0.44,0.2-0.77,0.957-0.767,1.314c2.5-0.253,6.402-0.008,8.708,1.018c-1.834,0.209-4.624,0.442-5.823,1.072
																		c-3.487,1.838-5.027,6.129-4.109,11.27c0.919,5.13,4.959,23.856,6.245,30.109
																		c1.286,6.246-2.754,10.281-5.324,11.383l2.754,0.186l-0.917,2.021c3.302,0.368,6.974-0.73,6.974-0.73
																		c-0.733,2.021-5.692,2.758-5.692,2.758s2.39,0.729,6.243-0.734c3.857-1.467,6.244-2.391,6.244-2.391l1.835,4.771
																		l3.491-3.485l1.469,3.672C58.716,88.943,61.472,88.021,60.554,83.801z"/>
																	<path fill="#FFFFFF" d="M61.663,82.943c-0.915-4.221-6.241-13.771-8.263-17.812c-2.021-4.04-4.041-9.73-3.122-13.4
																		c0.17-0.668,0.174-3.396,0.728-3.758c4.283-2.8,3.979-0.096,5.696-1.35c0.886-0.646,1.595-1.429,1.904-2.501
																		c1.103-3.855-1.531-10.571-4.468-13.509c-0.956-0.958-2.427-1.559-4.086-1.876
																		c-0.637-0.875-1.665-1.712-3.123-2.485c-2.745-1.458-6.148-2.041-9.301-1.469c0.504,0.046,1.658,1.089,2.123,1.157
																		c-0.703,0.477-2.572,0.416-2.561,1.475c2.503-0.25,5.247,0.145,7.554,1.17c-1.834,0.208-3.542,0.661-4.741,1.294
																		c-3.491,1.834-4.408,5.506-3.491,10.65c0.92,5.142,4.961,23.868,6.242,30.112
																		c1.287,6.239-2.751,10.277-5.321,11.381l2.754,0.188L39.27,84.23c3.302,0.36,6.974-0.732,6.974-0.732
																		c-0.732,2.021-5.691,2.754-5.691,2.754s2.386,0.732,6.242-0.734c3.859-1.469,6.248-2.387,6.248-2.387l1.833,4.771
																		l3.491-3.488l1.471,3.673C59.831,88.084,62.583,87.165,61.663,82.943z"/>
																	<path fill="#2D4F8E" d="M40.555,40.788c0-1.065,0.861-1.929,1.93-1.929c1.064,0,1.927,0.862,1.927,1.929
																		c0,1.066-0.863,1.928-1.927,1.928C41.417,42.716,40.555,41.854,40.555,40.788z"/>
																	<path fill="#FFFFFF" d="M42.84,40.144c0-0.277,0.225-0.5,0.499-0.5c0.277,0,0.501,0.224,0.501,0.5
																		s-0.224,0.501-0.501,0.501C43.065,40.646,42.84,40.422,42.84,40.144z"/>
																	<path fill="#2D4F8E" d="M53.717,39.644c0-0.913,0.744-1.655,1.656-1.655c0.917,0,1.657,0.742,1.657,1.655
																		c0,0.917-0.741,1.659-1.657,1.659C54.461,41.303,53.717,40.561,53.717,39.644z"/>
																	<path fill="#FFFFFF" d="M55.681,39.093c0-0.235,0.193-0.429,0.427-0.429c0.243,0,0.429,0.193,0.429,0.429
																		c0,0.239-0.187,0.429-0.429,0.429C55.874,39.521,55.681,39.331,55.681,39.093z"/>
																	
																		<linearGradient id="SVGID_3_" gradientUnits="userSpaceOnUse" x1="2812.6709" y1="-4378.8423" x2="2817.0332" y2="-4378.8423" gradientTransform="matrix(1 0 0 -1 -2774 -4343)">
																		<stop  offset="0.0056" style="stop-color:#6176B9"/>
																		<stop  offset="0.691" style="stop-color:#394A9F"/>
																	</linearGradient>
																	<path fill="url(#SVGID_3_)" d="M43.033,35.2c0,0-1.454-0.657-2.867,0.23c-1.41,0.887-1.358,1.794-1.358,1.794
																		s-0.75-1.672,1.249-2.491C42.058,33.915,43.033,35.2,43.033,35.2z"/>
																	
																		<linearGradient id="SVGID_4_" gradientUnits="userSpaceOnUse" x1="2826.3945" y1="-4377.5132" x2="2830.3701" y2="-4377.5132" gradientTransform="matrix(1 0 0 -1 -2774 -4343)">
																		<stop  offset="0.0056" style="stop-color:#6176B9"/>
																		<stop  offset="0.691" style="stop-color:#394A9F"/>
																	</linearGradient>
																	<path fill="url(#SVGID_4_)" d="M56.37,35.067c0,0-1.043-0.597-1.855-0.587c-1.664,0.021-2.12,0.758-2.12,0.758
																		s0.279-1.754,2.411-1.403C55.961,34.028,56.37,35.067,56.37,35.067z"/>
																</g>
															</g>
														</g>
													</g>
												</g>
											</g>
										</g>
									</g>
								</g>
							</g>
						</g>
					</g>
				</g>
			</g>
		</g>
		<path fill="#FDD20A" d="M48.387,48.225c0.193-1.166,3.208-3.374,5.342-3.508c2.139-0.134,2.806-0.104,4.588-0.531
			c1.787-0.428,6.383-1.572,7.656-2.16c1.275-0.589,6.672,0.292,2.868,2.413c-1.647,0.921-6.083,2.612-9.253,3.56
			c-3.167,0.946-5.087-0.906-6.14,0.651c-0.838,1.229-0.171,2.933,3.614,3.285c5.11,0.476,10.01-2.308,10.55-0.828
			c0.542,1.476-4.393,3.312-7.398,3.373c-3,0.057-9.051-1.981-9.957-2.615C49.346,51.232,48.135,49.761,48.387,48.225z"/>
	</g>
	<g>
		<path fill="#65BC46" d="M50.699,63.359c0,0-7.179-3.828-7.297-2.275c-0.121,1.557,0,7.898,0.837,8.377
			c0.838,0.479,6.821-3.109,6.821-3.109L50.699,63.359z"/>
		<path fill="#65BC46" d="M53.451,63.12c0,0,4.906-3.712,5.985-3.472c1.075,0.244,1.315,7.896,0.356,8.262
			c-0.957,0.355-6.572-1.943-6.572-1.943L53.451,63.12z"/>
		<path fill="#43A244" d="M48.962,63.766c0,2.512-0.361,3.59,0.718,3.828c1.075,0.235,3.108,0,3.828-0.479
			c0.717-0.479,0.118-3.708-0.12-4.311C53.147,62.209,48.962,62.689,48.962,63.766z"/>
		<path fill="#65BC46" d="M49.418,63.208c0,2.511-0.359,3.589,0.718,3.828c1.073,0.241,3.108,0,3.828-0.478
			c0.717-0.479,0.119-3.705-0.122-4.312C53.603,61.652,49.418,62.133,49.418,63.208z"/>
	</g>
</g>
</svg>
